<svg width="24" height="24" viewBox="0 0 24 24" fill="none" xmlns="http://www.w3.org/2000/svg">
<g clip-path="url(#clip0_1_2)">
<path d="M19.0025 14.5C19.0025 14.5 17.0025 16.67 17.0025 18C17.0025 18.5304 17.2132 19.0391 17.5883 19.4142C17.9634 19.7893 18.4721 20 19.0025 20C19.5329 20 20.0416 19.7893 20.4167 19.4142C20.7918 19.0391 21.0025 18.5304 21.0025 18C21.0025 16.67 19.0025 14.5 19.0025 14.5ZM5.2125 13L10.0025 8.21L14.7925 13M16.5625 11.94L7.6225 3L6.2125 4.41L8.5925 6.79L3.4425 11.94C2.8525 12.5 2.8525 13.47 3.4425 14.06L8.9425 19.56C9.2325 19.85 9.6225 20 10.0025 20C10.3825 20 10.7725 19.85 11.0625 19.56L16.5625 14.06C17.1525 13.47 17.1525 12.5 16.5625 11.94Z" fill="black"/>
</g>
<defs>
<clipPath id="clip0_1_2">
<rect width="24" height="24" fill="white"/>
</clipPath>
</defs>
</svg>
