<svg width="1000" height="1000" viewBox="0 0 1000 1000" fill="none" xmlns="http://www.w3.org/2000/svg">
<path d="M538.781 185.632C543.053 185.462 544.959 185.631 549.477 185.631H549.516L549.555 185.635C697.162 200.789 796.026 250.321 854.053 316.874C912.09 383.436 929.197 466.933 913.46 549.82C882.821 711.195 727.699 870.316 507.574 898.253C507.619 898.542 507.575 898.878 507.453 899.038C507.37 899.101 507.238 899.17 507.196 899.185C507.138 899.205 507.089 899.214 507.084 899.214C507.056 899.22 507.031 899.222 507.021 899.223C506.976 899.229 506.904 899.235 506.821 899.242C506.645 899.256 506.357 899.277 505.974 899.303C502.907 899.516 493.484 900.116 484.208 900.702C477.084 901.291 469.897 901.744 462.648 902.056L462.647 902.057H462.646C462.639 902.058 462.632 902.058 462.625 902.058L462.613 901.853C457.768 902.146 452.452 902.467 446.632 902.82C383.753 906.631 321.763 908.16 275.478 902.052C252.343 898.999 233.055 894.03 219.531 886.432C205.997 878.829 198.143 868.531 198.124 854.855C196.202 838.764 203.865 821.859 215.246 804.888C226.643 787.894 241.911 770.639 255.358 753.914C268.847 737.136 280.491 720.907 284.861 705.83C287.04 698.312 287.397 691.12 285.3 684.306C283.211 677.515 278.659 671.023 270.89 664.921C262.066 660.862 251.995 660.753 241.02 663.445C230.008 666.146 218.143 671.653 205.827 678.729C181.16 692.901 154.939 713.2 130.236 729.589C117.911 737.766 105.978 744.958 94.8658 749.865C83.7637 754.768 73.403 757.426 64.2477 756.447C55.0418 755.462 47.1351 750.807 40.9801 741.278C34.8489 731.786 30.4588 717.468 28.1666 697.125V697.121C12.8904 555.052 79.9234 429.261 181.036 337.973C282.141 246.692 417.401 189.83 538.781 185.631V185.632ZM399.333 527.839C362.712 527.839 333.025 557.527 333.025 594.147C333.025 630.768 362.712 660.456 399.333 660.456C435.953 660.456 465.64 630.768 465.64 594.147C465.64 557.527 435.953 527.839 399.333 527.839Z" fill="url(#paint0_linear_3_10)"/>
<path d="M816.995 248.128L974 166.577C935.892 62.9239 828.428 9.5729 724.012 35.4863L746.877 216.118L816.995 248.128Z" fill="url(#paint1_radial_3_10)"/>
<path d="M827.665 242.793C799.334 219.928 784.177 211.363 746.877 203.923L685.142 367.787L742.304 399.797L827.665 242.793Z" fill="url(#paint2_linear_3_10)"/>
<path d="M730.109 475.251L486.219 958.459C468.689 984.372 436.679 966.08 451.922 934.832L637.126 427.235C650.964 394.03 662.953 382.399 686.666 365.5C716.746 370.411 728.197 378.002 745.353 394.462C749.355 427.269 744.098 444.715 730.109 475.251Z" fill="url(#paint3_linear_3_10)"/>
<path d="M224.21 610.928L94.7486 497.599C91.1357 494.437 91.5549 490.313 96.006 485.228C97.763 483.221 99.6956 481.958 101.804 481.44C104.029 480.788 106.011 481.224 107.751 482.746L118.389 492.059C115.984 472.936 121.224 456.016 134.109 441.297C142.777 431.395 152.891 425.24 164.452 422.834C176.012 420.427 186.543 423.382 196.043 431.699C201.931 436.853 206.413 443.613 209.489 451.978C212.549 460.093 212.221 468.432 208.505 476.997C221.64 466.042 234.883 460.499 248.233 460.368C261.7 460.103 272.716 463.719 281.28 471.216C294.527 482.813 301.751 496.7 302.952 512.877C304.153 529.055 296.788 546.243 280.858 564.441C267.153 580.097 253.156 591.361 238.868 598.234C240.222 601.546 239.376 604.942 236.331 608.421C231.997 613.372 227.956 614.208 224.21 610.928ZM224.567 585.006C236.613 580.425 249.84 569.905 264.248 553.446C276.195 539.797 282.296 527.294 282.55 515.934C282.669 504.458 278.648 495.147 270.485 488.002C260.985 479.685 250.32 477.558 238.492 481.621C226.529 485.566 214.691 494.23 202.978 507.611C199.346 511.759 194.268 517.83 187.741 525.826C181.081 533.704 176.697 538.847 174.589 541.256L224.567 585.006ZM158.331 527.024C163.685 522.257 169.232 516.595 174.972 510.039C185.983 497.46 191.991 485.467 192.998 474.057C193.987 462.397 191.003 453.522 184.045 447.431C178.291 442.394 172.311 440.586 166.104 442.006C159.897 443.427 153.982 447.349 148.359 453.771C141.8 461.265 137.457 469.871 135.33 479.591C133.203 489.31 134.313 499.381 138.661 509.805L158.331 527.024Z" fill="url(#paint4_radial_3_10)"/>
<path d="M337.196 463.993C336.027 461.595 335.699 458.689 336.211 455.274C336.883 451.782 338.418 449.451 340.816 448.282C341.615 447.893 342.253 447.78 342.728 447.944C351.206 451.133 362.248 452.478 375.853 451.981C389.541 451.246 401.34 448.463 411.252 443.633C439.868 429.688 449.541 413.204 440.27 394.18C437.154 387.786 432.624 383.564 426.68 381.515C420.818 379.228 414.183 378.603 406.775 379.641C399.528 380.601 391.717 382.231 383.342 384.532C375.127 386.754 366.716 388.776 358.107 390.597C349.421 392.258 341.141 393.128 333.266 393.207C325.551 393.208 318.176 391.064 311.141 386.777C304.266 382.412 298.647 375.753 294.285 366.801C287.741 353.372 288.631 340.178 296.956 327.22C305.202 314.101 317.559 303.53 334.025 295.506C346.814 289.273 359.856 285.589 373.15 284.452C386.526 283.078 397.721 284.942 406.736 290.044C407.052 290.286 407.326 290.647 407.56 291.126C408.495 293.045 408.11 295.705 406.405 299.108C404.782 302.273 402.931 304.362 400.853 305.374C400.533 305.53 399.379 305.598 397.391 305.578C379.698 301.341 361.499 303.779 342.795 312.894C331.444 318.425 322.505 325.452 315.975 333.975C309.368 342.339 308.168 350.837 312.374 359.469C315.257 365.384 319.551 369.326 325.258 371.293C331.124 373.182 337.642 373.567 344.812 372.447C352.063 371.089 359.876 369.26 368.251 366.96C376.548 364.499 385.039 362.438 393.725 360.777C402.412 359.116 410.69 358.445 418.561 358.764C426.514 358.845 434.005 361.228 441.036 365.913C448.227 370.52 454.12 377.54 458.717 386.972C473.207 416.707 460.788 441.156 421.461 460.32C408.672 466.553 395.032 470.43 380.541 471.952C365.972 473.315 352.823 471.908 341.095 467.732C339.43 467.158 338.131 465.912 337.196 463.993Z" fill="url(#paint5_radial_3_10)"/>
<path d="M509.448 411.928L508.626 404.504C508.196 400.615 509.444 397.346 512.371 394.696C515.475 392.026 519.767 390.388 525.246 389.781C530.019 389.253 534.211 389.952 537.824 391.878C541.417 393.627 543.439 396.534 543.889 400.6L544.711 408.023C545.161 412.089 543.756 415.555 540.495 418.421C537.214 421.11 533.276 422.709 528.68 423.218C523.201 423.824 518.743 423.155 515.307 421.209C511.851 419.087 509.898 415.993 509.448 411.928ZM510.767 353.542L497.409 232.906C496.881 228.134 499.975 225.375 506.692 224.632C509.343 224.338 511.621 224.712 513.526 225.754C515.607 226.776 516.775 228.436 517.029 230.734L530.387 351.37C530.641 353.668 529.874 355.631 528.087 357.261C526.279 358.713 524.05 359.586 521.399 359.88C514.859 360.604 511.315 358.491 510.767 353.542Z" fill="url(#paint6_radial_3_10)"/>
<defs>
<linearGradient id="paint0_linear_3_10" x1="361.464" y1="245.773" x2="654.838" y2="742.907" gradientUnits="userSpaceOnUse">
<stop stop-color="#E9F9FF"/>
<stop offset="1" stop-color="#85BCDA"/>
</linearGradient>
<radialGradient id="paint1_radial_3_10" cx="0" cy="0" r="1" gradientUnits="userSpaceOnUse" gradientTransform="translate(729.347 50.7294) rotate(50.0492) scale(269.431 307.374)">
<stop stop-color="#E6CAA5"/>
<stop offset="1" stop-color="#9B613B"/>
</radialGradient>
<linearGradient id="paint2_linear_3_10" x1="727.823" y1="283.95" x2="784.222" y2="319.771" gradientUnits="userSpaceOnUse">
<stop stop-color="#D5D5D5"/>
<stop offset="1" stop-color="#7D7E80"/>
</linearGradient>
<linearGradient id="paint3_linear_3_10" x1="596.732" y1="648.261" x2="640.175" y2="668.077" gradientUnits="userSpaceOnUse">
<stop stop-color="#F6A03D"/>
<stop offset="1" stop-color="#A85416"/>
</linearGradient>
<radialGradient id="paint4_radial_3_10" cx="0" cy="0" r="1" gradientTransform="matrix(112.16 41.0355 -22.4315 59.7098 204.049 504.864)" gradientUnits="userSpaceOnUse">
<stop stop-color="#F19482"/>
<stop offset="1" stop-color="#E23A16"/>
</radialGradient>
<radialGradient id="paint5_radial_3_10" cx="0" cy="0" r="1" gradientTransform="matrix(86.3401 81.8731 -42.2744 45.5751 376.267 379.742)" gradientUnits="userSpaceOnUse">
<stop stop-color="#A6DC8E"/>
<stop offset="1" stop-color="#60B639"/>
</radialGradient>
<radialGradient id="paint6_radial_3_10" cx="0" cy="0" r="1" gradientTransform="matrix(28.9103 108.901 -20.6442 24.8739 518.125 331.321)" gradientUnits="userSpaceOnUse">
<stop stop-color="#FDE086"/>
<stop offset="1" stop-color="#F3A409"/>
</radialGradient>
</defs>
</svg>
